<?xml version="1.0" encoding="UTF-8" standalone="no"?>
<!-- Created with Inkscape (http://www.inkscape.org/) -->

<svg
   xmlns:dc="http://purl.org/dc/elements/1.1/"
   xmlns:cc="http://creativecommons.org/ns#"
   xmlns:rdf="http://www.w3.org/1999/02/22-rdf-syntax-ns#"
   xmlns:svg="http://www.w3.org/2000/svg"
   xmlns="http://www.w3.org/2000/svg"
   xmlns:sodipodi="http://sodipodi.sourceforge.net/DTD/sodipodi-0.dtd"
   xmlns:inkscape="http://www.inkscape.org/namespaces/inkscape"
   width="107.861"
   height="115.99924"
   id="svg7072"
   version="1.1"
   inkscape:version="0.48.0 r9654"
   sodipodi:docname="New document 2">
  <defs
     id="defs7074" />
  <sodipodi:namedview
     id="base"
     pagecolor="#ffffff"
     bordercolor="#666666"
     borderopacity="1.0"
     inkscape:pageopacity="0.0"
     inkscape:pageshadow="2"
     inkscape:zoom="0.35"
     inkscape:cx="40.3591"
     inkscape:cy="-62.000379"
     inkscape:document-units="px"
     inkscape:current-layer="layer1"
     showgrid="false"
     fit-margin-top="0"
     fit-margin-left="0"
     fit-margin-right="0"
     fit-margin-bottom="0"
     inkscape:window-width="483"
     inkscape:window-height="424"
     inkscape:window-x="20"
     inkscape:window-y="20"
     inkscape:window-maximized="0" />
  <metadata
     id="metadata7077">
    <rdf:RDF>
      <cc:Work
         rdf:about="">
        <dc:format>image/svg+xml</dc:format>
        <dc:type
           rdf:resource="http://purl.org/dc/dcmitype/StillImage" />
        <dc:title></dc:title>
      </cc:Work>
    </rdf:RDF>
  </metadata>
  <g
     inkscape:label="Layer 1"
     inkscape:groupmode="layer"
     id="layer1"
     transform="translate(-334.6409,-354.36256)">
    <g
       style="display:inline"
       transform="translate(3698.9033,357.33061)"
       id="g11795">
      <g
         id="g24197">
        <path
           id="path24124"
           d="m -3364.2624,28.88092 c 0,-0.95 0.58,-1.455 0.859,-1.65 l 42.652,-29.868 c 0.646,-0.428 1.525,-0.359 1.845,-0.243 l 61.18,22.284 c 0.57,0.208 1.325,0.722 1.325,1.893 l 0,59.855 c 0,1.187 -0.581,1.455 -0.859,1.649 l -42.633,29.857 c -0.744,0.556 -1.524,0.358 -1.844,0.242 l -61.2,-22.271 c -0.57,-0.207 -1.325,-0.597 -1.325,-1.893 z"
           inkscape:connector-curvature="0"
           style="fill:#58595b"
           sodipodi:nodetypes="cccccssccccsc" />
        <path
           style="fill:#c6c8ca"
           d="m -3258.4164,21.29692 0,7.855 -42.632,29.856 -61.2,-22.272 0,0 0,-7.855 42.652,-29.868 z"
           id="path24126"
           inkscape:connector-curvature="0"
           sodipodi:nodetypes="cccccccc" />
        <path
           style="fill:#e7e8e9"
           d="m -3362.2484,88.73592 0,0 0,-59.855 61.2,22.27 0,59.857 z"
           id="path24128"
           inkscape:connector-curvature="0"
           sodipodi:nodetypes="cccccc" />
        <path
           style="fill:#a7a9ac"
           d="m -3258.4164,21.29692 0,59.855 -42.632,29.856 0,-59.857 0,0 z"
           id="path24130"
           inkscape:connector-curvature="0"
           sodipodi:nodetypes="cccccc" />
        <polygon
           id="polygon24132"
           points="2.512,31.5 2.512,31.5 63.141,53.443 105.332,24.078 105.846,24.265 105.846,24.947 63.288,54.682 2.014,32.391 2.014,31.849 "
           style="fill:#ffffff"
           transform="translate(-3364.2624,-2.96808)" />
        <path
           id="path24142"
           d="m -3313.2388,76.885 c -0.03,-0.42762 -0.097,-0.85759 -0.1466,-1.28482 0,0 0,-0.0276 0,-0.0276 0,0 -5.6167,-3.04499 -5.6167,-3.04499 -0.3822,-1.73631 -1.0305,-3.47604 -1.9115,-5.15071 0,0 3.3232,-3.16944 3.3232,-3.16944 -0.969,-1.54361 -2.0993,-3.0396 -3.3232,-4.43911 0,0 -4.6758,1.32918 -4.6758,1.32918 -1.4871,-1.47283 -3.1855,-2.79365 -4.9698,-3.842 0,-0.002 -0.028,-0.0108 -0.03,-0.0108 0,0 -0.8821,-5.63928 -0.8821,-5.63928 -0.8343,-0.40409 -1.6966,-0.76393 -2.5585,-1.0809 -0.705,-0.25932 -1.4007,-0.49665 -2.0878,-0.68405 0,0 -0.9998,4.94702 -0.9998,4.94702 -1.9404,-0.33568 -3.7525,-0.28415 -5.3521,0.12931 0,0 -4.5581,-4.83744 -4.5581,-4.83744 -1.1815,0.4707 -2.2572,1.12014 -3.2055,1.89797 0,0 3.2348,5.66542 3.2348,5.66542 -1.049,1.17836 -1.7846,2.65386 -2.1467,4.41332 0,0 -5.5581,-1.20517 -5.5581,-1.20517 -0.056,0.57534 -0.058,1.1862 -0.058,1.79661 0,0.86173 0.035,1.69749 0.1466,2.57159 0,0 5.6754,3.09459 5.6754,3.09459 0.4702,1.96994 1.2858,3.95802 2.3819,5.82728 0,0 -3.2934,3.09633 -3.2934,3.09633 0.9992,1.48466 2.1477,2.92866 3.3818,4.26493 0,0 4.7639,-1.38065 4.7639,-1.38065 1.5404,1.41505 3.2402,2.6281 5.0582,3.59471 0,0 0.8821,5.61131 0.8821,5.61131 0.58,0.2596 1.1425,0.47618 1.735,0.69411 1.0298,0.37874 2.0393,0.63623 3.029,0.86236 0,0 1.0291,-4.99217 1.0291,-4.99217 1.6339,0.18018 3.1583,0.0502 4.5288,-0.32031 0,0 4.5581,4.83744 4.5581,4.83744 1.2598,-0.51644 2.4234,-1.20609 3.4114,-2.07403 0,0 -3.2937,-5.77097 -3.2937,-5.77097 0.8147,-1.01076 1.4399,-2.19108 1.7938,-3.59201 0,0 5.5873,1.21592 5.5873,1.21592 0.095,-0.7291 0.1465,-1.47983 0.1465,-2.26766 0,-0.21294 0,-0.42958 0,-0.64336 0,-0.10453 0,-0.20238 0,-0.30769 0,-0.0284 0,-0.0554 0,-0.0838 0,0 0,-3e-5 0,-3e-5 m -14.292,-4.52952 c 0,0.10367 0,0.20432 0,0.30772 0,3.31117 -2.8415,4.96892 -6.3224,3.68858 -3.4812,-1.28039 -6.2933,-5.01767 -6.2933,-8.32886 0,-3.31116 2.8121,-4.95176 6.2933,-3.67141 3.3721,1.24036 6.1534,4.77384 6.3224,8.00397 0,0 0,0 0,0"
           style="color:#000000;fill:#58595b;fill-opacity:1;fill-rule:nonzero;stroke:none;stroke-width:0.99999994;marker:none;visibility:visible;display:inline;overflow:visible"
           inkscape:connector-curvature="0" />
      </g>
    </g>
  </g>
</svg>
