<?xml version="1.0" encoding="UTF-8" standalone="no"?>
<!-- Created with Inkscape (http://www.inkscape.org/) -->

<svg
   xmlns:dc="http://purl.org/dc/elements/1.1/"
   xmlns:cc="http://creativecommons.org/ns#"
   xmlns:rdf="http://www.w3.org/1999/02/22-rdf-syntax-ns#"
   xmlns:svg="http://www.w3.org/2000/svg"
   xmlns="http://www.w3.org/2000/svg"
   xmlns:sodipodi="http://sodipodi.sourceforge.net/DTD/sodipodi-0.dtd"
   xmlns:inkscape="http://www.inkscape.org/namespaces/inkscape"
   width="70.149002"
   height="71.04026"
   id="svg6554"
   version="1.1"
   inkscape:version="0.48.0 r9654"
   sodipodi:docname="New document 9">
  <defs
     id="defs6556" />
  <sodipodi:namedview
     id="base"
     pagecolor="#ffffff"
     bordercolor="#666666"
     borderopacity="1.0"
     inkscape:pageopacity="0.0"
     inkscape:pageshadow="2"
     inkscape:zoom="0.35"
     inkscape:cx="-147.06836"
     inkscape:cy="92.662986"
     inkscape:document-units="px"
     inkscape:current-layer="layer1"
     showgrid="false"
     fit-margin-top="0"
     fit-margin-left="0"
     fit-margin-right="0"
     fit-margin-bottom="0"
     inkscape:window-width="483"
     inkscape:window-height="424"
     inkscape:window-x="398"
     inkscape:window-y="102"
     inkscape:window-maximized="0" />
  <metadata
     id="metadata6559">
    <rdf:RDF>
      <cc:Work
         rdf:about="">
        <dc:format>image/svg+xml</dc:format>
        <dc:type
           rdf:resource="http://purl.org/dc/dcmitype/StillImage" />
        <dc:title></dc:title>
      </cc:Work>
    </rdf:RDF>
  </metadata>
  <g
     inkscape:label="Layer 1"
     inkscape:groupmode="layer"
     id="layer1"
     transform="translate(-522.06836,-553.98491)">
    <g
       transform="matrix(0.76125623,0,0,0.76125623,522.06836,553.98557)"
       id="g11989">
      <title
         id="title11991">Gear</title>
      <path
         style="fill:#58595b;fill-rule:evenodd"
         inkscape:connector-curvature="0"
         clip-rule="evenodd"
         d="M 13.076,21.992 9.193,15.418 C 8.354,14.192 7.687,11.695 9.674,10.313 l 6.312,-5.2 c 2.712,-2.151 8.336,-6.937 11.71,-3.021 l 6.585,7.351 0.4,-1.625 c 0.851,-3.409 6.627,-7.104 7.735,-7.671 1.879,-0.962 14.159,2.948 15.054,6.567 l 1.158,8.614 c 2.541,1.619 4.951,3.493 7.188,5.563 l 6.09,-2.365 c 1.127,-0.469 2.459,-0.751 4.076,0.379 1.289,0.9 6.107,8.284 7.303,10.254 1.008,1.66 0.211,3.48 -0.74,4.32 l -4.422,4.269 c 1.215,2.634 2.184,5.345 2.865,8.081 l 8.266,4.176 c 1.605,0.648 2.895,2.354 2.895,4.16 v 8.603 c 0,1.908 -1.594,2.989 -1.594,2.989 -0.086,0.106 -6.004,4.837 -6.227,4.992 -1.047,0.728 -2.363,0.806 -3.207,0.594 l -2.049,-0.456 3.883,6.574 c 0.84,1.227 1.506,3.724 -0.48,5.104 0,0 -12.105,9.021 -13.281,9.639 -1.592,0.835 -3.42,0.282 -4.742,-1.418 l -6.586,-7.352 -0.398,1.625 c -0.547,2.794 -6.43,6.885 -7.754,7.689 -0.877,0.532 -1.645,0.734 -3.313,0.426 C 45.002,92.915 38.779,90.619 37.353,90.025 35.564,89.279 34.9,87.816 34.679,86.164 L 33.521,77.55 c -2.542,-1.618 -4.952,-3.492 -7.189,-5.563 l -6.087,2.365 C 19.012,74.765 17.456,74.84 16.168,73.578 15.442,72.866 9.335,64.677 8.722,63.15 8.103,61.61 8.736,60.147 9.605,59.399 L 14.028,55.13 C 12.813,52.495 11.843,49.784 11.162,47.049 L 2.897,42.872 C 0.995,41.872 0,40.52 0,38.714 V 30.111 C 0,27.77 2.34,26.462 3.888,25.203 l 3.596,-2.78 c 1.093,-0.772 2.445,-1.105 3.531,-0.89 l 2.061,0.459 0,0 z m 42.258,32.561 c 0,-8.678 -9.13,-19.419 -18.205,-18.913 -0.203,0.804 -0.316,1.701 -0.316,2.688 0,8.678 9.13,19.418 18.207,18.912 0.203,-0.803 0.314,-1.7 0.314,-2.687 l 0,0 z"
         id="path11993" />
      <path
         style="fill:#d1d3d4;fill-rule:evenodd"
         inkscape:connector-curvature="0"
         clip-rule="evenodd"
         d="m 81.66,57.396 c 0.977,0.401 1.709,1.387 1.709,2.33 v 8.604 c 0,0.943 -0.732,1.324 -1.709,1.087 l -9.184,-2.045 c -0.75,2.797 -1.963,5.244 -3.561,7.293 l 5.578,9.443 c 0.666,0.91 0.666,1.992 0,2.417 l -6.084,3.869 c -0.666,0.424 -1.699,0.075 -2.416,-0.88 l -7.414,-8.276 c -2.629,0.64 -5.518,0.802 -8.588,0.435 l -1.299,8.711 c -0.109,1.094 -0.764,1.431 -1.708,1.087 L 38.381,88.339 C 37.437,87.996 36.8,87.11 36.673,86.009 l -1.298,-9.655 c -3.07,-1.868 -5.959,-4.133 -8.589,-6.687 l -7.413,2.879 c -0.886,0.355 -1.749,0.031 -2.416,-0.879 l -6.083,-8.298 c -0.667,-0.91 -0.723,-1.752 0,-2.416 l 5.578,-5.384 c -1.597,-3.211 -2.81,-6.541 -3.561,-9.884 L 3.708,41.045 C 2.525,40.528 2,39.658 2,38.714 v -8.603 c 0,-0.943 0.789,-1.276 1.708,-1.086 l 9.183,2.044 c 0.75,-2.797 1.963,-5.245 3.561,-7.293 l -5.578,-9.444 c -0.667,-0.91 -0.667,-1.992 0,-2.416 l 5.934,-3.762 c 0.667,-0.424 1.643,-0.298 2.566,0.772 l 7.414,8.276 c 2.629,-0.64 5.518,-0.801 8.588,-0.435 l 1.298,-8.711 c 0.095,-0.785 0.765,-1.43 1.708,-1.087 l 8.603,3.131 c 0.943,0.344 1.635,1.375 1.708,2.331 l 1.299,9.656 c 3.07,1.868 5.959,4.132 8.588,6.687 l 7.414,-2.88 c 0.756,-0.284 1.75,-0.03 2.416,0.879 l 6.084,8.298 c 0.668,0.91 0.479,1.985 0,2.416 l -5.578,5.384 c 1.598,3.211 2.811,6.541 3.561,9.884 l 9.183,4.641 0,0 z M 28.033,43.888 c 0,-8.092 6.559,-12.264 14.651,-9.319 8.091,2.945 14.65,11.892 14.65,19.983 0,8.091 -6.559,12.263 -14.65,9.317 C 34.592,60.926 28.033,51.979 28.033,43.888 l 0,0 z"
         id="path11995" />
    </g>
  </g>
</svg>
