<?xml version="1.0" encoding="UTF-8" standalone="no"?>
<!-- Created with Inkscape (http://www.inkscape.org/) -->

<svg
   xmlns:dc="http://purl.org/dc/elements/1.1/"
   xmlns:cc="http://creativecommons.org/ns#"
   xmlns:rdf="http://www.w3.org/1999/02/22-rdf-syntax-ns#"
   xmlns:svg="http://www.w3.org/2000/svg"
   xmlns="http://www.w3.org/2000/svg"
   xmlns:sodipodi="http://sodipodi.sourceforge.net/DTD/sodipodi-0.dtd"
   xmlns:inkscape="http://www.inkscape.org/namespaces/inkscape"
   width="81.977829"
   height="82.014618"
   id="svg6204"
   version="1.1"
   inkscape:version="0.48.0 r9654"
   sodipodi:docname="New document 5">
  <defs
     id="defs6206">
    <clipPath
       clipPathUnits="userSpaceOnUse"
       id="clipPath12900">
      <path
         id="path12902"
         d="m -534.70228,20.948672 0,299.792238 429.94334,0 c 0.54337,20.75407 17.518546,37.41638 38.403718,37.41638 21.227943,0 38.436577,-17.20864 38.436577,-38.43658 0,-20.95162 -16.767719,-37.99661 -37.613929,-38.43657 l 0,-260.335468 -469.169706,0 z"
         style="color:#000000;fill:none;stroke:#d7e9f0;stroke-width:9.00000191;stroke-miterlimit:4;stroke-opacity:1;stroke-dasharray:none;marker:none;visibility:visible;display:inline;overflow:visible;enable-background:accumulate"
         inkscape:connector-curvature="0" />
    </clipPath>
  </defs>
  <sodipodi:namedview
     id="base"
     pagecolor="#ffffff"
     bordercolor="#666666"
     borderopacity="1.0"
     inkscape:pageopacity="0.0"
     inkscape:pageshadow="2"
     inkscape:zoom="0.35"
     inkscape:cx="144.56033"
     inkscape:cy="12.432482"
     inkscape:document-units="px"
     inkscape:current-layer="layer1"
     showgrid="false"
     fit-margin-top="0"
     fit-margin-left="0"
     fit-margin-right="0"
     fit-margin-bottom="0"
     inkscape:window-width="483"
     inkscape:window-height="424"
     inkscape:window-x="-1"
     inkscape:window-y="27"
     inkscape:window-maximized="0" />
  <metadata
     id="metadata6209">
    <rdf:RDF>
      <cc:Work
         rdf:about="">
        <dc:format>image/svg+xml</dc:format>
        <dc:type
           rdf:resource="http://purl.org/dc/dcmitype/StillImage" />
        <dc:title></dc:title>
      </cc:Work>
    </rdf:RDF>
  </metadata>
  <g
     inkscape:label="Layer 1"
     inkscape:groupmode="layer"
     id="layer1"
     transform="translate(-230.43967,-462.78004)">
    <g
       id="people1-6"
       transform="matrix(0.9496163,0,0,0.9496163,333.4403,194.19117)"
       clip-path="url(#clipPath12900)">
      <title
         id="title19086-9">People 1</title>
      <path
         style="fill:#666666"
         inkscape:connector-curvature="0"
         id="path3230-6"
         d="m -47.584,327.082 c 1.22,-11.531 -3.407,-27.172 -16.262,-27.513 -16.681,-0.44 -19.783,16.113 -18.938,28.469 1.03,15.049 33.057,19.307 35.2,-0.956 z" />
      <path
         style="fill:#cccccc;stroke:#888a85;stroke-width:2.23297977"
         inkscape:connector-curvature="0"
         id="path3232-2"
         d="m -96.055,357.476 c 1.448,-3.999 2.089,-11.423 7.076,-13.903 l 12.749,-2.727 10.38,-2.222 13.235,2.518 10.921,2.076 c 4.25,1.526 6.26,9.794 8.291,14.48 1.013,1.756 0.011,3.869 -2.022,3.869 h -58.386 c -1.971,10e-4 -3.124,-2.566 -2.244,-4.091 z" />
      <path
         style="fill:#cccccc;stroke:#eeeeec;stroke-width:2.16405463"
         inkscape:connector-curvature="0"
         id="path3234-6"
         d="m -94.944,356.812 c 1.398,-3.518 2.016,-10.051 6.826,-12.231 l 12.297,-2.401 10.012,-1.953 12.767,2.213 10.533,1.826 c 4.1,1.343 6.038,8.619 7.999,12.743 0.976,1.543 0.011,3.403 -1.95,3.403 h -56.319 c -1.902,0 -3.013,-2.259 -2.165,-3.6 z" />
      <path
         style="fill:#eeeeec;stroke:#666666;stroke-width:1.71844339"
         inkscape:connector-curvature="0"
         id="path3236-2"
         d="m -71.493,333.462 c 0.081,2.293 -0.248,3.847 -0.933,5.584 -0.216,0.546 -0.467,1.11 -0.749,1.721 4.621,10.106 16.601,4.895 16.287,-0.284 l -1.326,-8.616 -13.279,1.595 z" />
      <path
         style="fill:#ffffff"
         inkscape:connector-curvature="0"
         id="path3238-3"
         d="m -68.093,344.532 c 1.384,2.811 -4.269,-1.865 -4.143,-3.881 0.453,-2.718 1.485,-2.677 1.326,-8.3 l 3.362,0.389 c -1.088,-1.177 -3.261,6.272 -0.545,11.792 z" />
      <path
         style="fill:#f9f9f8;stroke:#666666;stroke-width:1.70643556"
         inkscape:connector-curvature="0"
         id="path3240-9"
         d="m -53.978,318.872 c -0.271,4.426 -0.674,9.946 -1.6,14.256 0,0 -4.067,4.095 -6.483,5.212 -2.415,1.117 -3.09,0.966 -5.366,-0.034 -2.274,-0.999 -7.287,-3.862 -7.287,-4.906 0,-9.576 -3.299,-19.602 6.785,-24.946 l 2.985,3.696 c 1.105,1.367 5.956,3.492 7.787,1.67 1.445,-1.438 2.328,3.838 3.179,5.052 z" />
      <path
         style="fill:#ffffff"
         inkscape:connector-curvature="0"
         id="path3242-7"
         d="m -75.499,319.631 c -0.375,4.438 0.247,8.994 1.19,13.523 2.599,2.187 6.836,5.459 10.128,5.336 2.563,-0.528 4.466,-2.086 0.056,-1.975 -11.627,-1.781 -9.266,-12.971 -9.931,-21.169 l -1.443,4.285 z" />
    </g>
    <path
       sodipodi:type="arc"
       style="color:#000000;fill:none;stroke:#d1d3d4;stroke-width:7.64383554;stroke-linecap:square;stroke-linejoin:round;stroke-miterlimit:4;stroke-opacity:1;stroke-dasharray:none;stroke-dashoffset:0;marker:none;visibility:visible;display:inline;overflow:visible;enable-background:accumulate"
       id="path13362"
       sodipodi:cx="6365"
       sodipodi:cy="6001.3623"
       sodipodi:rx="31"
       sodipodi:ry="31"
       d="m 6396,6001.3623 c 0,17.1208 -13.8792,31 -31,31 -17.1208,0 -31,-13.8792 -31,-31 0,-17.1208 13.8792,-31 31,-31 17.1208,0 31,13.8792 31,31 z"
       transform="matrix(1.1774194,0,0,1.1774194,-7222.8459,-6562.3296)" />
  </g>
</svg>
